HIERARCHY
ROOT Hips
{
	OFFSET 56.018101 -9.594066 95.900497
	CHANNELS 6 Xposition Yposition Zposition Xrotation Yrotation Zrotation
	JOINT spine
	{
		OFFSET 0.000000 -0.458069 7.965683
		CHANNELS 3 Xrotation Yrotation Zrotation
		JOINT spine1
		{
			OFFSET 0.000000 -0.000001 10.243103
			CHANNELS 3 Xrotation Yrotation Zrotation
			JOINT spine2
			{
				OFFSET 0.000000 -0.000002 9.814751
				CHANNELS 3 Xrotation Yrotation Zrotation
				JOINT Neck
				{
					OFFSET 0.000000 -1.201384 25.198601
					CHANNELS 3 Xrotation Yrotation Zrotation
					JOINT Head
					{
						OFFSET 0.000000 -0.000002 7.613144
						CHANNELS 3 Xrotation Yrotation Zrotation
						End Site
						{
							OFFSET 0.000000 6.077327 18.428101
						}
					}
				}
				JOINT RightShoulder
				{
					OFFSET -4.132702 0.575449 10.599205
					CHANNELS 3 Xrotation Yrotation Zrotation
					JOINT RightArm
					{
						OFFSET 0.000000 -0.000002 13.901794
						CHANNELS 3 Xrotation Yrotation Zrotation
						JOINT RightArmRoll
						{
							OFFSET 0.000000 -0.000002 7.017883
							CHANNELS 3 Xrotation Yrotation Zrotation
							JOINT RightForeArm
							{
								OFFSET 0.000000 -0.000003 20.440598
								CHANNELS 3 Xrotation Yrotation Zrotation
								JOINT RightForeArmRoll
								{
									OFFSET 0.000000 -0.000001 7.875153
									CHANNELS 3 Xrotation Yrotation Zrotation
									JOINT RightHand
									{
										OFFSET 0.000000 -0.000003 15.803696
										CHANNELS 3 Xrotation Yrotation Zrotation
										End Site
										{
											OFFSET 0.000000 0.000000 0.100006
										}
									}
								}
							}
						}
					}
				}
				JOINT LeftShoulder
				{
					OFFSET 4.132702 0.575449 10.599205
					CHANNELS 3 Xrotation Yrotation Zrotation
					JOINT LeftArm
					{
						OFFSET 0.000000 -0.000002 13.901794
						CHANNELS 3 Xrotation Yrotation Zrotation
						JOINT LeftArmRoll
						{
							OFFSET 0.000000 -0.000002 7.017883
							CHANNELS 3 Xrotation Yrotation Zrotation
							JOINT LeftForeArm
							{
								OFFSET 0.000000 -0.000003 20.440598
								CHANNELS 3 Xrotation Yrotation Zrotation
								JOINT LeftForeArmRoll
								{
									OFFSET 0.000000 -0.000001 7.875153
									CHANNELS 3 Xrotation Yrotation Zrotation
									JOINT LeftHand
									{
										OFFSET 0.000000 -0.000003 15.803696
										CHANNELS 3 Xrotation Yrotation Zrotation
										End Site
										{
											OFFSET 0.000000 0.000000 0.100006
										}
									}
								}
							}
						}
					}
				}
			}
		}
	}
	JOINT RightUpLeg
	{
		OFFSET -7.060482 1.086100 -1.294701
		CHANNELS 3 Xrotation Yrotation Zrotation
		JOINT RightUpLegRoll
		{
			OFFSET 0.000000 -0.000003 18.530800
			CHANNELS 3 Xrotation Yrotation Zrotation
			JOINT RightLeg
			{
				OFFSET 0.000000 0.000004 -22.947601
				CHANNELS 3 Xrotation Yrotation Zrotation
				JOINT RightLegRoll
				{
					OFFSET 0.000000 -0.000004 23.022598
					CHANNELS 3 Xrotation Yrotation Zrotation
					JOINT RightFoot
					{
						OFFSET 0.000000 -0.000004 19.162506
						CHANNELS 3 Xrotation Yrotation Zrotation
						JOINT RightToeBase
						{
							OFFSET 0.000000 -0.000002 16.018799
							CHANNELS 3 Xrotation Yrotation Zrotation
							End Site
							{
								OFFSET 0.006790 0.894206 7.757812
							}
						}
					}
				}
			}
		}
	}
	JOINT LeftUpLeg
	{
		OFFSET 7.060482 1.086100 -1.294701
		CHANNELS 3 Xrotation Yrotation Zrotation
		JOINT LeftUpLegRoll
		{
			OFFSET 0.000000 -0.000003 18.530899
			CHANNELS 3 Xrotation Yrotation Zrotation
			JOINT LeftLeg
			{
				OFFSET 0.000000 -0.000004 22.947502
				CHANNELS 3 Xrotation Yrotation Zrotation
				JOINT LeftLegRoll
				{
					OFFSET 0.000000 -0.000004 23.235504
					CHANNELS 3 Xrotation Yrotation Zrotation
					JOINT LeftFoot
					{
						OFFSET 0.000000 -0.000003 18.949600
						CHANNELS 3 Xrotation Yrotation Zrotation
						JOINT LeftToeBase
						{
							OFFSET 0.000000 -0.000003 16.018799
							CHANNELS 3 Xrotation Yrotation Zrotation
							End Site
							{
								OFFSET -0.030430 0.894206 7.757812
							}
						}
					}
				}
			}
		}
	}
}
MOTION
Frames: 6
Frame Time: 0.041667
59.494495 -9.202655 95.448708 3.076447 -3.929436 68.692920 -1.686341 1.063199 1.217119 0.608103 2.085263 2.455402 2.253016 2.114776 2.430193 -13.900283 25.172847 8.849997 24.368232 -19.654914 8.139518 -5.022986 -23.796210 -1.764644 94.723591 5.658597 125.247419 -0.000014 0.000003 -0.000010 53.943246 11.135487 -5.165462 0.000008 0.000014 -3.003749 -4.999867 -7.999623 0.000031 -53.435340 69.791344 60.550173 80.897362 65.912439 -56.129545 -0.000002 -0.000008 0.000012 85.125863 4.342654 3.505314 -0.000010 0.000006 3.000020 -4.999846 7.999507 -0.000037 12.866092 -175.232205 6.765608 179.999991 -0.000005 -1.270000 169.464015 -0.989043 -0.559940 -0.000004 -0.000001 0.457338 73.925535 6.738455 2.201569 35.124132 -6.962125 2.952827 -8.271512 178.046516 0.213825 -0.000004 -0.000005 -0.964748 -10.761162 3.664467 0.591628 -0.000002 0.000002 -0.150930 71.119242 -6.842150 -2.120881 25.456957 7.355615 -0.000000 
59.503998 -9.190676 95.444290 3.059134 -3.948224 68.683829 -1.684750 1.060871 1.212492 0.611427 2.079352 2.446054 2.256350 2.108765 2.420900 -13.759229 25.176103 8.858261 24.164128 -19.691456 8.155867 -5.035942 -23.787710 -1.781428 94.705545 5.844599 124.468655 -0.000014 0.000003 -0.000013 52.488617 11.399564 -5.211473 0.000009 0.000014 -3.003752 -4.999867 -7.999624 0.000032 -53.416563 69.714689 60.543992 81.238878 66.054978 -56.507948 -0.000003 -0.000008 0.000012 85.176543 4.292050 3.546857 -0.000012 0.000006 3.000016 -4.999847 7.999502 -0.000037 12.884470 -175.231577 6.771767 179.999991 -0.000005 -1.269999 169.448114 -0.988011 -0.560029 -0.000001 -0.000001 0.458832 73.938820 6.738245 2.201641 35.105738 -6.960852 2.961903 -8.250016 178.045423 0.210201 -0.000004 -0.000005 -0.965367 -10.765464 3.663904 0.591685 -0.000002 0.000002 -0.150511 71.119488 -6.842572 -2.121237 25.456957 7.355613 -0.000000 
59.509102 -9.191543 95.445801 3.042260 -3.966740 68.675346 -1.682627 1.058693 1.207986 0.615816 2.073970 2.436953 2.260734 2.103303 2.411855 -13.637756 25.176603 8.871296 23.981146 -19.723378 8.175386 -5.050881 -23.769270 -1.799805 94.711030 6.035166 123.732524 -0.000014 0.000003 -0.000008 51.082063 11.653888 -5.241229 0.000009 0.000015 -3.003754 -4.999868 -7.999625 0.000033 -53.405676 69.638867 60.546239 81.568742 66.190066 -56.872844 -0.000002 -0.000005 0.000012 85.224266 4.245036 3.585600 -0.000011 0.000006 3.000022 -4.999847 7.999505 -0.000036 12.901244 -175.230921 6.777622 179.999991 -0.000005 -1.269999 169.428908 -0.986969 -0.560179 -0.000005 -0.000001 0.460551 73.956052 6.737845 2.201852 35.086221 -6.959735 2.970216 -8.221833 178.044290 0.203020 -0.000003 -0.000005 -0.965802 -10.755392 3.668015 0.591454 -0.000002 0.000002 -0.149852 71.113457 -6.842989 -2.121877 25.456960 7.355614 -0.000000 
59.513195 -9.196633 95.443390 3.026231 -3.985243 68.667607 -1.679756 1.056706 1.203714 0.621670 2.069248 2.428325 2.266591 2.098488 2.403281 -13.540615 25.176111 8.890439 23.824145 -19.751485 8.199002 -5.066940 -23.738625 -1.818197 94.744429 6.230258 123.052661 -0.000013 0.000002 -0.000008 49.733862 11.896841 -5.254383 0.000009 0.000013 -3.003751 -4.999868 -7.999628 0.000029 -53.407985 69.564869 60.562632 81.881216 66.315160 -57.218383 -0.000002 -0.000007 0.000012 85.268382 4.202400 3.620800 -0.000011 0.000008 3.000024 -4.999847 7.999505 -0.000035 12.916328 -175.229254 6.783624 179.999991 -0.000004 -1.270000 169.405808 -0.985902 -0.561385 -0.000003 -0.000000 0.462541 73.977813 6.737305 2.202470 35.065010 -6.958831 2.977739 -8.185523 178.042131 0.192222 -0.000004 -0.000005 -0.966015 -10.728351 3.677531 0.590870 -0.000002 0.000002 -0.148917 71.099933 -6.843379 -2.122973 25.456957 7.355616 -0.000000 
59.517097 -9.194353 95.440193 3.011452 -4.004020 68.660866 -1.675956 1.054928 1.199812 0.629389 2.065285 2.420387 2.274311 2.094440 2.395398 -13.472914 25.176576 8.917213 23.697577 -19.776511 8.227439 -5.083221 -23.693414 -1.835019 94.809794 6.429847 122.441687 -0.000014 0.000003 -0.000009 48.453840 12.126482 -5.250442 0.000011 0.000015 -3.003751 -4.999868 -7.999625 0.000036 -53.428783 69.493705 60.598914 82.170488 66.427681 -57.538436 -0.000002 -0.000006 0.000012 85.308270 4.164958 3.651794 -0.000012 0.000005 3.000022 -4.999846 7.999506 -0.000036 12.929629 -175.226577 6.790006 179.999991 -0.000004 -1.269999 169.378118 -0.983852 -0.561497 -0.000003 -0.000000 0.464846 74.005113 6.736519 2.203418 35.041603 -6.958162 2.984425 -8.139606 178.039932 0.177442 -0.000005 -0.000005 -0.965979 -10.681740 3.693171 0.589836 -0.000002 0.000002 -0.147667 71.077783 -6.843762 -2.124400 25.456953 7.355611 -0.000000 
59.506798 -9.182129 95.440201 2.998323 -4.023351 68.655258 -1.671015 1.053402 1.196368 0.639374 2.062221 2.413388 2.284303 2.091298 2.388426 -13.439043 25.179597 8.952731 23.606387 -19.799151 8.261620 -5.098851 -23.631167 -1.848678 94.910956 6.633764 121.912210 -0.000014 0.000003 -0.000005 47.252365 12.340675 -5.229226 0.000009 0.000012 -3.003749 -4.999870 -7.999629 0.000032 -53.474063 69.426189 60.661437 82.430514 66.525359 -57.826704 -0.000002 -0.000006 0.000012 85.343207 4.133566 3.678047 -0.000011 0.000007 3.000022 -4.999847 7.999506 -0.000038 12.940841 -175.222889 6.796981 179.999991 -0.000005 -1.270000 169.345224 -0.982767 -0.561878 -0.000002 -0.000001 0.467514 74.038738 6.735469 2.204753 35.015477 -6.957732 2.990229 -8.082640 178.038662 0.158335 -0.000004 -0.000004 -0.965662 -10.612863 3.715651 0.588262 -0.000002 0.000002 -0.146070 71.045797 -6.844061 -2.126415 25.456957 7.355615 -0.000001 
